PathFileType   4   (X/Y/Z)
DataRate	CameraRate	NumFrames	NumMarkers	Units	OrigDataRate	OrigDataStartFrame	OrigNumFrames
120.0	120.0	5	37	mm	120.0	77	122
Frame#	Time	midhip	hip_r	hip_l	knee_r	knee_l	ankle_r	ankle_l	midasis	asis_r	asis_l	psis_r	psis_l	epicondLat_r	epicondLat_l	epicondMed_r	epicondMed_l	malleolusLat_r	malleolusLat_l	malleolusMedv_r	malleolusMedv_l	neck	subclavicle_r	subclavicle_l	sternalnotch	xyphoidprocess	thighwand_r	thighwand_l	upperleg1_r	upperleg1_l	upperleg2_r	upperleg2_l	shankwand_r	shankwand_l	lowerleg1_r	lowerleg1_l	toe_r	toe_l
 	 	X1	Y1	Z1	X2	Y2	Z2	X3	Y3	Z3	X4	Y4	Z4	X5	Y5	Z5	X6	Y6	Z6	X7	Y7	Z7	X8	Y8	Z8	X9	Y9	Z9	X10	Y10	Z10	X11	Y11	Z11	X12	Y12	Z12	X13	Y13	Z13	X14	Y14	Z14	X15	Y15	Z15	X16	Y16	Z16	X17	Y17	Z17	X18	Y18	Z18	X19	Y19	Z19	X20	Y20	Z20	X21	Y21	Z21	X22	Y22	Z22	X23	Y23	Z23	X24	Y24	Z24	X25	Y25	Z25	X26	Y26	Z26	X27	Y27	Z27	X28	Y28	Z28	X29	Y29	Z29	X30	Y30	Z30	X31	Y31	Z31	X32	Y32	Z32	X33	Y33	Z33	X34	Y34	Z34	X35	Y35	Z35	X36	Y36	Z36	X37	Y37	Z37

	77	0.74167	1832.729	670.801	-182.510	1830.305	682.893	-118.966	1820.771	672.718	-244.020	1940.474	384.949	-163.054	1813.212	354.168	-257.640	1920.773	55.826	-167.924	1546.348	171.082	-245.326	1890.653	741.108	-191.608	1897.762	748.694	-98.363	1883.545	733.521	-284.853	1747.130	780.748	-162.115	1741.029	773.065	-215.924	1947.372	380.132	-113.260	1797.611	356.567	-305.084	1939.777	381.370	-210.359	1848.540	340.519	-206.225	1918.547	55.465	-134.500	1539.814	178.380	-278.406	1921.884	65.920	-194.506	1548.108	183.654	-217.237	1770.665	1124.404	-180.275	1853.191	1075.024	-120.655	1848.946	1082.297	-249.743	1845.319	1067.487	-188.253	1865.453	924.968	-196.159	1928.061	456.193	-24.032	1937.664	455.221	-329.243	1934.025	530.086	-85.021	1897.569	506.255	-252.787	1969.125	456.889	-109.924	1887.094	419.946	-245.867	1918.924	153.957	-58.880	1669.879	157.328	-299.349	1928.708	212.016	-117.407	1686.810	236.104	-274.198	2019.443	38.922	-168.814	1546.101	76.737	-242.898
	78	0.75000	1841.311	672.533	-182.156	1838.773	684.554	-118.465	1829.563	674.521	-243.555	1943.770	384.803	-162.219	1833.183	355.981	-258.762	1920.856	55.771	-167.646	1567.076	172.328	-246.275	1899.409	742.748	-190.884	1906.276	750.229	-97.618	1892.542	735.268	-284.149	1756.081	782.576	-162.060	1750.219	774.780	-215.871	1950.583	379.920	-112.419	1817.261	358.061	-306.114	1942.612	381.985	-209.612	1866.453	343.264	-207.865	1918.495	55.384	-134.231	1560.403	179.752	-279.300	1921.989	66.143	-194.184	1569.557	184.548	-218.158	1780.706	1126.343	-179.739	1863.291	1076.807	-120.696	1858.346	1084.254	-249.791	1855.169	1069.343	-188.253	1874.811	926.821	-196.474	1932.528	456.559	-23.187	1953.592	460.414	-330.507	1940.599	530.476	-84.028	1911.845	510.270	-253.818	1973.719	456.602	-108.949	1903.321	423.593	-247.146	1919.544	153.843	-58.394	1690.410	158.931	-300.887	1930.562	211.876	-116.493	1707.582	237.977	-275.413	2019.431	38.873	-168.498	1570.362	78.422	-246.025
	79	0.75833	1849.765	674.257	-181.881	1847.114	686.168	-118.016	1838.264	676.371	-243.150	1946.828	384.663	-161.432	1852.920	358.167	-259.690	1920.904	55.717	-167.388	1588.410	172.864	-247.166	1908.049	744.404	-190.149	1914.648	751.709	-96.853	1901.450	737.100	-283.445	1764.897	784.371	-162.006	1759.319	776.514	-215.835	1953.551	379.715	-111.627	1836.820	359.885	-306.995	1946.919	381.438	-208.258	1883.080	346.158	-210.099	1918.433	55.307	-133.982	1581.579	180.386	-280.136	1922.068	66.268	-193.912	1591.308	184.679	-219.017	1790.702	1128.317	-179.288	1873.326	1078.594	-120.748	1867.740	1086.229	-249.826	1864.567	1071.151	-188.254	1884.111	928.686	-196.797	1936.782	456.939	-22.373	1969.478	465.959	-331.321	1945.810	530.568	-83.460	1925.614	514.681	-254.473	1978.299	456.298	-107.837	1918.732	427.150	-248.407	1920.142	153.743	-57.942	1711.603	160.379	-302.296	1932.079	211.629	-115.850	1728.659	239.601	-276.630	2019.425	38.818	-168.188	1595.578	79.623	-249.014
	80	0.76667	1858.160	675.969	-181.667	1855.419	687.723	-117.624	1846.949	678.246	-242.809	1949.692	384.543	-160.710	1872.370	360.653	-260.412	1920.950	55.665	-167.164	1610.311	172.652	-248.002	1916.647	746.067	-189.421	1922.961	753.133	-96.092	1910.332	739.001	-282.751	1773.607	786.124	-161.937	1768.344	778.246	-215.799	1956.295	379.517	-110.897	1856.241	361.984	-307.720	1949.788	381.034	-207.153	1900.813	349.238	-211.751	1918.362	55.236	-133.767	1603.310	180.238	-280.921	1922.123	66.347	-193.645	1613.408	184.175	-219.771	1800.688	1130.295	-178.891	1883.167	1080.359	-120.836	1877.619	1088.267	-249.743	1873.967	1072.945	-188.220	1893.721	930.590	-197.123	1940.806	457.309	-21.607	1985.317	471.792	-331.666	1950.907	530.627	-82.885	1939.478	519.299	-254.860	1982.301	455.763	-107.011	1934.728	431.041	-249.287	1920.663	153.667	-57.544	1733.418	161.619	-303.551	1933.398	211.394	-115.323	1750.127	240.934	-277.635	2019.429	38.757	-167.894	1621.611	80.330	-251.808
	81	0.77500	1866.575	677.669	-181.485	1863.764	689.213	-117.292	1855.689	680.123	-242.532	1952.403	384.455	-160.065	1891.483	363.364	-260.921	1921.020	55.617	-166.978	1632.742	171.682	-248.786	1925.266	747.728	-188.715	1931.286	754.504	-95.356	1919.247	740.952	-282.075	1782.238	787.827	-161.851	1777.298	779.960	-215.759	1958.827	379.330	-110.238	1875.483	364.305	-308.283	1949.705	381.436	-206.647	1923.412	353.047	-211.012	1918.287	55.175	-133.593	1625.564	179.290	-281.663	1922.194	66.455	-193.377	1635.789	183.134	-220.456	1810.625	1132.263	-178.542	1892.696	1082.187	-121.015	1887.921	1090.239	-249.513	1882.407	1074.536	-188.059	1903.506	932.488	-197.216	1944.586	457.649	-20.904	2001.098	477.837	-331.520	1956.397	530.641	-82.066	1953.606	524.122	-255.181	1985.326	454.896	-106.638	1953.156	436.600	-249.178	1921.063	153.624	-57.211	1755.814	162.618	-304.629	1934.333	211.306	-114.803	1771.928	242.006	-278.399	2019.445	38.690	-167.624	1648.368	80.552	-254.367
